<mxfile host="app.diagrams.net" modified="2024-02-17T17:30:20.869Z" agent="Mozilla/5.0 (Windows NT 10.0; Win64; x64) AppleWebKit/537.36 (KHTML, like Gecko) Chrome/120.0.0.0 YaBrowser/24.1.0.0 Safari/537.36" etag="elNBVub48rK1VVPIqf5A" version="23.1.5" type="device">
  <diagram name="Страница — 1" id="bs5xIni1R-9Vh6Ju2W7H">
    <mxGraphModel dx="1643" dy="498" grid="1" gridSize="10" guides="1" tooltips="1" connect="1" arrows="1" fold="1" page="1" pageScale="1" pageWidth="827" pageHeight="1169" math="0" shadow="0">
      <root>
        <mxCell id="0" />
        <mxCell id="1" parent="0" />
        <mxCell id="Q2Uhni4rIaUsjdwinosw-33" value="" style="rounded=0;whiteSpace=wrap;html=1;shadow=0;" vertex="1" parent="1">
          <mxGeometry x="730" y="225" width="160" height="80" as="geometry" />
        </mxCell>
        <mxCell id="Q2Uhni4rIaUsjdwinosw-43" style="edgeStyle=orthogonalEdgeStyle;rounded=0;orthogonalLoop=1;jettySize=auto;html=1;exitX=0.5;exitY=1;exitDx=0;exitDy=0;entryX=0.5;entryY=0;entryDx=0;entryDy=0;" edge="1" parent="1" source="Q2Uhni4rIaUsjdwinosw-28" target="Q2Uhni4rIaUsjdwinosw-23">
          <mxGeometry relative="1" as="geometry" />
        </mxCell>
        <mxCell id="Q2Uhni4rIaUsjdwinosw-45" style="edgeStyle=orthogonalEdgeStyle;rounded=0;orthogonalLoop=1;jettySize=auto;html=1;exitX=0.5;exitY=1;exitDx=0;exitDy=0;entryX=0.5;entryY=0;entryDx=0;entryDy=0;" edge="1" parent="1" source="Q2Uhni4rIaUsjdwinosw-28" target="Q2Uhni4rIaUsjdwinosw-33">
          <mxGeometry relative="1" as="geometry" />
        </mxCell>
        <mxCell id="Q2Uhni4rIaUsjdwinosw-28" value="" style="rounded=0;whiteSpace=wrap;html=1;" vertex="1" parent="1">
          <mxGeometry x="430" y="90" width="160" height="80" as="geometry" />
        </mxCell>
        <mxCell id="Q2Uhni4rIaUsjdwinosw-29" value="" style="rounded=0;whiteSpace=wrap;html=1;" vertex="1" parent="1">
          <mxGeometry x="530" y="225" width="160" height="80" as="geometry" />
        </mxCell>
        <mxCell id="Q2Uhni4rIaUsjdwinosw-30" value="" style="rounded=0;whiteSpace=wrap;html=1;" vertex="1" parent="1">
          <mxGeometry x="329" y="225" width="160" height="80" as="geometry" />
        </mxCell>
        <mxCell id="Q2Uhni4rIaUsjdwinosw-47" style="edgeStyle=orthogonalEdgeStyle;rounded=0;orthogonalLoop=1;jettySize=auto;html=1;exitX=0.5;exitY=1;exitDx=0;exitDy=0;" edge="1" parent="1" source="Q2Uhni4rIaUsjdwinosw-23" target="Q2Uhni4rIaUsjdwinosw-17">
          <mxGeometry relative="1" as="geometry" />
        </mxCell>
        <mxCell id="Q2Uhni4rIaUsjdwinosw-48" style="edgeStyle=orthogonalEdgeStyle;rounded=0;orthogonalLoop=1;jettySize=auto;html=1;exitX=0.5;exitY=1;exitDx=0;exitDy=0;entryX=0.5;entryY=0;entryDx=0;entryDy=0;" edge="1" parent="1" source="Q2Uhni4rIaUsjdwinosw-23" target="Q2Uhni4rIaUsjdwinosw-21">
          <mxGeometry relative="1" as="geometry" />
        </mxCell>
        <mxCell id="Q2Uhni4rIaUsjdwinosw-49" style="edgeStyle=orthogonalEdgeStyle;rounded=0;orthogonalLoop=1;jettySize=auto;html=1;exitX=0.5;exitY=1;exitDx=0;exitDy=0;entryX=0.5;entryY=0;entryDx=0;entryDy=0;" edge="1" parent="1" source="Q2Uhni4rIaUsjdwinosw-23" target="Q2Uhni4rIaUsjdwinosw-20">
          <mxGeometry relative="1" as="geometry" />
        </mxCell>
        <mxCell id="Q2Uhni4rIaUsjdwinosw-23" value="" style="rounded=0;whiteSpace=wrap;html=1;" vertex="1" parent="1">
          <mxGeometry x="126.25" y="225" width="160" height="80" as="geometry" />
        </mxCell>
        <mxCell id="Q2Uhni4rIaUsjdwinosw-21" value="" style="rounded=0;whiteSpace=wrap;html=1;" vertex="1" parent="1">
          <mxGeometry x="305" y="350" width="160" height="80" as="geometry" />
        </mxCell>
        <mxCell id="Q2Uhni4rIaUsjdwinosw-20" value="" style="rounded=0;whiteSpace=wrap;html=1;" vertex="1" parent="1">
          <mxGeometry x="126.25" y="350" width="160" height="80" as="geometry" />
        </mxCell>
        <mxCell id="Q2Uhni4rIaUsjdwinosw-17" value="" style="rounded=0;whiteSpace=wrap;html=1;" vertex="1" parent="1">
          <mxGeometry x="-50" y="350" width="160" height="80" as="geometry" />
        </mxCell>
        <mxCell id="Q2Uhni4rIaUsjdwinosw-1" value="&lt;font style=&quot;font-size: 14px;&quot;&gt;Проведение урока&lt;br&gt;&amp;nbsp;математики&lt;/font&gt;" style="text;html=1;align=center;verticalAlign=middle;resizable=0;points=[];autosize=1;strokeColor=none;fillColor=none;fontStyle=1" vertex="1" parent="1">
          <mxGeometry x="435" y="105" width="150" height="50" as="geometry" />
        </mxCell>
        <mxCell id="Q2Uhni4rIaUsjdwinosw-2" value="&lt;font style=&quot;font-size: 14px;&quot;&gt;Составление новых математических задач и их решений&lt;/font&gt;" style="text;html=1;align=center;verticalAlign=middle;whiteSpace=wrap;rounded=0;" vertex="1" parent="1">
          <mxGeometry x="138.75" y="250" width="135" height="30" as="geometry" />
        </mxCell>
        <mxCell id="Q2Uhni4rIaUsjdwinosw-3" value="&lt;font style=&quot;font-size: 14px;&quot;&gt;Постановка текста задачи&lt;/font&gt;" style="text;html=1;align=center;verticalAlign=middle;whiteSpace=wrap;rounded=0;" vertex="1" parent="1">
          <mxGeometry x="-20" y="370" width="100" height="30" as="geometry" />
        </mxCell>
        <mxCell id="Q2Uhni4rIaUsjdwinosw-4" value="&lt;font style=&quot;font-size: 14px;&quot;&gt;Решение задачи&amp;nbsp;&lt;/font&gt;" style="text;html=1;align=center;verticalAlign=middle;whiteSpace=wrap;rounded=0;" vertex="1" parent="1">
          <mxGeometry x="162.5" y="370" width="87.5" height="30" as="geometry" />
        </mxCell>
        <mxCell id="Q2Uhni4rIaUsjdwinosw-6" value="&lt;font style=&quot;font-size: 14px;&quot;&gt;Построение графика для задачи&lt;/font&gt;" style="text;html=1;align=center;verticalAlign=middle;whiteSpace=wrap;rounded=0;" vertex="1" parent="1">
          <mxGeometry x="315" y="370" width="140" height="30" as="geometry" />
        </mxCell>
        <mxCell id="Q2Uhni4rIaUsjdwinosw-7" value="&lt;font style=&quot;font-size: 14px;&quot;&gt;Демонстрация ученикам подготовленных задач&amp;nbsp;&lt;/font&gt;" style="text;html=1;align=center;verticalAlign=middle;whiteSpace=wrap;rounded=0;" vertex="1" parent="1">
          <mxGeometry x="535" y="250" width="155" height="30" as="geometry" />
        </mxCell>
        <mxCell id="Q2Uhni4rIaUsjdwinosw-9" value="&lt;font style=&quot;font-size: 14px;&quot;&gt;Поиск нужной задачи из составленных задач&lt;/font&gt;&lt;div style=&quot;font-size: 14px;&quot;&gt;&lt;br&gt;&lt;/div&gt;" style="text;html=1;align=center;verticalAlign=middle;whiteSpace=wrap;rounded=0;" vertex="1" parent="1">
          <mxGeometry x="333.5" y="270" width="151" height="10" as="geometry" />
        </mxCell>
        <mxCell id="Q2Uhni4rIaUsjdwinosw-36" value="&lt;font style=&quot;font-size: 14px;&quot;&gt;Демонстрация решений и соответствующих графиков&lt;/font&gt;" style="text;html=1;align=center;verticalAlign=middle;whiteSpace=wrap;rounded=0;" vertex="1" parent="1">
          <mxGeometry x="767.5" y="250" width="85" height="30" as="geometry" />
        </mxCell>
        <mxCell id="Q2Uhni4rIaUsjdwinosw-44" value="" style="endArrow=classic;html=1;rounded=0;exitX=0.5;exitY=1;exitDx=0;exitDy=0;entryX=0.5;entryY=0;entryDx=0;entryDy=0;" edge="1" parent="1" source="Q2Uhni4rIaUsjdwinosw-28" target="Q2Uhni4rIaUsjdwinosw-30">
          <mxGeometry width="50" height="50" relative="1" as="geometry">
            <mxPoint x="390" y="370" as="sourcePoint" />
            <mxPoint x="440" y="320" as="targetPoint" />
            <Array as="points">
              <mxPoint x="510" y="200" />
              <mxPoint x="410" y="200" />
            </Array>
          </mxGeometry>
        </mxCell>
        <mxCell id="Q2Uhni4rIaUsjdwinosw-46" value="" style="endArrow=classic;html=1;rounded=0;exitX=0.5;exitY=1;exitDx=0;exitDy=0;entryX=0.5;entryY=0;entryDx=0;entryDy=0;" edge="1" parent="1" source="Q2Uhni4rIaUsjdwinosw-28" target="Q2Uhni4rIaUsjdwinosw-29">
          <mxGeometry width="50" height="50" relative="1" as="geometry">
            <mxPoint x="390" y="370" as="sourcePoint" />
            <mxPoint x="440" y="320" as="targetPoint" />
            <Array as="points">
              <mxPoint x="510" y="200" />
              <mxPoint x="610" y="200" />
            </Array>
          </mxGeometry>
        </mxCell>
        <mxCell id="Q2Uhni4rIaUsjdwinosw-51" value="" style="shape=note;whiteSpace=wrap;html=1;backgroundOutline=1;darkOpacity=0.05;" vertex="1" parent="1">
          <mxGeometry x="90" y="20" width="80" height="100" as="geometry" />
        </mxCell>
      </root>
    </mxGraphModel>
  </diagram>
</mxfile>
